<svg width="20" height="20" viewBox="0 0 20 20" fill="none" xmlns="http://www.w3.org/2000/svg">
<mask id="mask0_9561_391284" style="mask-type:alpha" maskUnits="userSpaceOnUse" x="0" y="0" width="20" height="20">
<rect width="20" height="20" fill="#D9D9D9"/>
</mask>
<g mask="url(#mask0_9561_391284)">
<path d="M7.97899 14.667C7.53433 14.667 7.15599 14.514 6.84399 14.208C6.53133 13.9027 6.37499 13.5277 6.37499 13.083V3.938C6.37499 3.49333 6.53133 3.11467 6.84399 2.802C7.15599 2.48933 7.53433 2.333 7.97899 2.333H14.604C15.0487 2.333 15.4273 2.48933 15.74 2.802C16.052 3.11467 16.208 3.49333 16.208 3.938V13.083C16.208 13.5277 16.052 13.9027 15.74 14.208C15.4273 14.514 15.0487 14.667 14.604 14.667H7.97899ZM7.97899 13.333H14.604C14.6873 13.333 14.7533 13.3087 14.802 13.26C14.8507 13.212 14.875 13.153 14.875 13.083V3.938C14.875 3.854 14.8507 3.788 14.802 3.74C14.7533 3.69133 14.6873 3.667 14.604 3.667H7.97899C7.89566 3.667 7.82966 3.69133 7.78099 3.74C7.73233 3.788 7.70799 3.854 7.70799 3.938V13.083C7.70799 13.153 7.73233 13.212 7.78099 13.26C7.82966 13.3087 7.89566 13.333 7.97899 13.333ZM4.87499 17.75C4.43033 17.75 4.05533 17.5973 3.74999 17.292C3.44466 16.986 3.29199 16.611 3.29199 16.167V6.396C3.29199 6.22933 3.35799 6.07667 3.48999 5.938C3.62199 5.79867 3.77799 5.729 3.95799 5.729C4.12466 5.729 4.27766 5.79867 4.41699 5.938C4.55566 6.07667 4.62499 6.22933 4.62499 6.396V16.167C4.62499 16.2363 4.64933 16.2953 4.69799 16.344C4.74666 16.3927 4.80566 16.417 4.87499 16.417H12.146C12.3127 16.417 12.4653 16.4863 12.604 16.625C12.7427 16.7637 12.812 16.9163 12.812 17.083C12.812 17.2637 12.7427 17.42 12.604 17.552C12.4653 17.684 12.3127 17.75 12.146 17.75H4.87499Z" fill="#1C1B1F"/>
</g>
</svg>
