<svg width="16" height="16" viewBox="0 0 16 16" fill="none" xmlns="http://www.w3.org/2000/svg">
<mask id="mask0_9561_391287" style="mask-type:alpha" maskUnits="userSpaceOnUse" x="0" y="0" width="16" height="16">
<rect width="16" height="16" fill="#D9D9D9"/>
</mask>
<g mask="url(#mask0_9561_391287)">
<path d="M4.14599 15.083C3.70132 15.083 3.32632 14.9303 3.02099 14.625C2.71499 14.3197 2.56199 13.9447 2.56199 13.5V3.125H2.35399C2.17332 3.125 2.01699 3.059 1.88499 2.927C1.75365 2.795 1.68799 2.63867 1.68799 2.458C1.68799 2.278 1.75365 2.122 1.88499 1.99C2.01699 1.858 2.17332 1.792 2.35399 1.792H5.52099C5.52099 1.58333 5.60066 1.40267 5.75999 1.25C5.91999 1.09733 6.10399 1.021 6.31199 1.021H9.66699C9.87499 1.021 10.059 1.09733 10.219 1.25C10.3783 1.40267 10.458 1.58333 10.458 1.792H13.625C13.8057 1.792 13.962 1.858 14.094 1.99C14.226 2.122 14.292 2.278 14.292 2.458C14.292 2.63867 14.226 2.795 14.094 2.927C13.962 3.059 13.8057 3.125 13.625 3.125H13.417V13.5C13.417 13.9447 13.264 14.3197 12.958 14.625C12.6527 14.9303 12.2777 15.083 11.833 15.083H4.14599ZM3.89599 3.125V13.5C3.89599 13.5693 3.92032 13.6283 3.96899 13.677C4.01765 13.7257 4.07665 13.75 4.14599 13.75H11.833C11.903 13.75 11.962 13.7257 12.01 13.677C12.0587 13.6283 12.083 13.5693 12.083 13.5V3.125H3.89599ZM5.79199 11.333C5.79199 11.5137 5.85799 11.67 5.98999 11.802C6.12199 11.934 6.27799 12 6.45799 12C6.63866 12 6.79499 11.934 6.92699 11.802C7.05899 11.67 7.12499 11.5137 7.12499 11.333V5.542C7.12499 5.36133 7.05899 5.205 6.92699 5.073C6.79499 4.941 6.63866 4.875 6.45799 4.875C6.27799 4.875 6.12199 4.941 5.98999 5.073C5.85799 5.205 5.79199 5.36133 5.79199 5.542V11.333ZM8.85399 11.333C8.85399 11.5137 8.91999 11.67 9.05199 11.802C9.18399 11.934 9.34032 12 9.52099 12C9.70166 12 9.85799 11.934 9.98999 11.802C10.122 11.67 10.188 11.5137 10.188 11.333V5.542C10.188 5.36133 10.122 5.205 9.98999 5.073C9.85799 4.941 9.70166 4.875 9.52099 4.875C9.34032 4.875 9.18399 4.941 9.05199 5.073C8.91999 5.205 8.85399 5.36133 8.85399 5.542V11.333ZM3.89599 3.125V13.5C3.89599 13.5693 3.92032 13.6283 3.96899 13.677C4.01765 13.7257 4.07665 13.75 4.14599 13.75H3.89599V3.125Z" fill="#1C1B1F"/>
</g>
</svg>
