<svg width="16" height="16" viewBox="0 0 16 16" fill="none" xmlns="http://www.w3.org/2000/svg">
<mask id="mask0_9561_391290" style="mask-type:alpha" maskUnits="userSpaceOnUse" x="0" y="0" width="16" height="16">
<rect width="16" height="16" fill="#D9D9D9"/>
</mask>
<g mask="url(#mask0_9561_391290)">
<path d="M0.999992 17C0.638659 17 0.325992 16.868 0.0619922 16.604C-0.201341 16.34 -0.333008 16.0277 -0.333008 15.667C-0.333008 15.2917 -0.201341 14.9757 0.0619922 14.719C0.325992 14.4617 0.638659 14.333 0.999992 14.333H15C15.3613 14.333 15.674 14.465 15.938 14.729C16.2013 14.993 16.333 15.3057 16.333 15.667C16.333 16.0417 16.2013 16.3577 15.938 16.615C15.674 16.8717 15.3613 17 15 17H0.999992ZM2.87499 12.396C2.66633 12.396 2.48233 12.316 2.32299 12.156C2.16299 11.9967 2.08299 11.8127 2.08299 11.604V10.021C2.08299 9.92367 2.10033 9.82633 2.13499 9.729C2.17033 9.63167 2.22933 9.54833 2.31199 9.479L9.24999 2.542L11.938 5.229L4.99999 12.167C4.93066 12.2503 4.84733 12.3093 4.74999 12.344C4.65266 12.3787 4.55533 12.396 4.45799 12.396H2.87499ZM3.41699 11.062H4.16699L10.083 5.146L9.33299 4.396L3.41699 10.312V11.062ZM12.896 4.208L10.229 1.542L11.417 0.354C11.5837 0.201333 11.7953 0.121667 12.052 0.115C12.3093 0.107667 12.5213 0.187333 12.688 0.354L14.167 1.854C14.3197 2.00667 14.382 2.20133 14.354 2.438C14.326 2.674 14.2357 2.86833 14.083 3.021L12.896 4.208Z" fill="#1C1B1F"/>
</g>
</svg>
