<svg width="20" height="20" viewBox="0 0 20 20" fill="none" xmlns="http://www.w3.org/2000/svg">
<mask id="mask0_9561_391290" style="mask-type:alpha" maskUnits="userSpaceOnUse" x="0" y="0" width="20" height="20">
<rect width="20" height="20" fill="#D9D9D9"/>
</mask>
<g mask="url(#mask0_9561_391290)">
<path d="M2.99999 20C2.63866 20 2.32599 19.868 2.06199 19.604C1.79866 19.34 1.66699 19.0277 1.66699 18.667C1.66699 18.2917 1.79866 17.9757 2.06199 17.719C2.32599 17.4617 2.63866 17.333 2.99999 17.333H17C17.3613 17.333 17.674 17.465 17.938 17.729C18.2013 17.993 18.333 18.3057 18.333 18.667C18.333 19.0417 18.2013 19.3577 17.938 19.615C17.674 19.8717 17.3613 20 17 20H2.99999ZM4.87499 15.396C4.66633 15.396 4.48233 15.316 4.32299 15.156C4.16299 14.9967 4.08299 14.8127 4.08299 14.604V13.021C4.08299 12.9237 4.10033 12.8263 4.13499 12.729C4.17033 12.6317 4.22933 12.5483 4.31199 12.479L11.25 5.542L13.938 8.229L6.99999 15.167C6.93066 15.2503 6.84733 15.3093 6.74999 15.344C6.65266 15.3787 6.55533 15.396 6.45799 15.396H4.87499ZM5.41699 14.062H6.16699L12.083 8.146L11.333 7.396L5.41699 13.312V14.062ZM14.896 7.208L12.229 4.542L13.417 3.354C13.5837 3.20133 13.7953 3.12167 14.052 3.115C14.3093 3.10767 14.5213 3.18733 14.688 3.354L16.167 4.854C16.3197 5.00667 16.382 5.20133 16.354 5.438C16.326 5.674 16.2357 5.86833 16.083 6.021L14.896 7.208Z" fill="#1C1B1F"/>
</g>
</svg>
