<svg width="16" height="16" viewBox="0 0 16 16" fill="none" xmlns="http://www.w3.org/2000/svg">
<path fill-rule="evenodd" clip-rule="evenodd" d="M2.06513 10.9359L8.35162 4.64943C8.54902 4.45203 8.86772 4.45197 9.06429 4.64848L11.3525 6.93587C11.5471 7.13043 11.5486 7.45142 11.3516 7.64848L5.06513 13.9359C4.86773 14.1333 4.48658 14.2927 4.21299 14.2927H2.20376C1.92413 14.2927 1.70837 14.0709 1.70837 13.7973V11.7881C1.70837 11.5084 1.8681 11.1329 2.06513 10.9359ZM12.4194 2.00403L13.998 3.58212C14.388 3.97202 14.3908 4.61113 13.9981 5.00347L13.0567 5.94387C12.8652 6.13522 12.5488 6.13278 12.3523 5.93627L10.0641 3.64888C9.86947 3.45431 9.86415 3.1371 10.0565 2.9447L10.9974 2.00383C11.3957 1.60557 12.0266 1.61138 12.4194 2.00403Z" fill="#0D2E4E"/>
</svg>
