<svg width="20" height="20" viewBox="0 0 20 20" fill="none" xmlns="http://www.w3.org/2000/svg">
<mask id="mask0_9561_391278" style="mask-type:alpha" maskUnits="userSpaceOnUse" x="0" y="0" width="20" height="20">
<rect width="20" height="20" fill="#D9D9D9"/>
</mask>
<g mask="url(#mask0_9561_391278)">
<path d="M7.87495 13.979L9.99995 12.354L12.125 13.979L11.333 11.396L13.708 9.5H10.854L9.99995 6.875L9.16695 9.5H6.29195L8.68795 11.396L7.87495 13.979ZM9.99995 13.729L7.18795 15.854C7.07662 15.9373 6.96528 15.9757 6.85395 15.969C6.74328 15.9617 6.64595 15.9303 6.56195 15.875C6.46528 15.8197 6.39595 15.7363 6.35395 15.625C6.31262 15.5137 6.30562 15.3957 6.33295 15.271L7.41695 11.771L4.45795 9.375C4.36062 9.29167 4.29828 9.198 4.27095 9.094C4.24295 8.99 4.24995 8.88233 4.29195 8.771C4.33328 8.65967 4.39562 8.57267 4.47895 8.51C4.56228 8.448 4.67328 8.417 4.81195 8.417H8.37495L9.47895 5C9.52095 4.87467 9.59062 4.781 9.68795 4.719C9.78462 4.65633 9.88862 4.625 9.99995 4.625C10.1113 4.625 10.2153 4.65633 10.312 4.719C10.4093 4.781 10.479 4.87467 10.521 5L11.625 8.417H15.188C15.3266 8.417 15.4376 8.448 15.521 8.51C15.6043 8.57267 15.6666 8.65967 15.708 8.771C15.75 8.88233 15.757 8.99 15.729 9.094C15.7016 9.198 15.6393 9.29167 15.542 9.375L12.583 11.771L13.667 15.271C13.6943 15.3957 13.6873 15.5137 13.646 15.625C13.604 15.7363 13.5346 15.8197 13.438 15.875C13.354 15.9303 13.2566 15.9617 13.146 15.969C13.0346 15.9757 12.9233 15.9373 12.812 15.854L9.99995 13.729Z" fill="#1C1B1F"/>
</g>
</svg>
