<svg width="16" height="16" viewBox="0 0 16 16" fill="none" xmlns="http://www.w3.org/2000/svg">
<path fill-rule="evenodd" clip-rule="evenodd" d="M3.32986 13.7106C3.56776 12.7404 3.80013 11.6569 4.10673 10.595C4.28125 9.9907 4.15488 9.59712 3.65131 9.2144C2.87082 8.62156 2.11811 7.98438 1.41261 7.30476C1.17928 7.08 0.957754 6.61125 1.04073 6.35375C1.12676 6.08692 1.57057 5.80982 1.88897 5.76643C2.92201 5.62579 3.96837 5.56565 5.01169 5.52435C5.52631 5.50398 5.80131 5.31747 5.98059 4.8217C6.3243 3.87145 6.70132 2.92767 7.1499 2.02366C7.30577 1.70945 7.71932 1.32254 8.00632 1.32958C8.30531 1.337 8.70212 1.7241 8.86503 2.04307C9.26622 2.82851 9.62306 3.65068 9.87485 4.49492C10.1156 5.30168 10.5925 5.57116 11.3835 5.58449C12.2681 5.59952 13.1582 5.66385 14.0314 5.8005C14.3823 5.8555 14.9276 6.1208 14.9681 6.3606C15.026 6.70355 14.7928 7.20237 14.5224 7.47262C13.8525 8.14177 13.1078 8.74032 12.3598 9.32459C11.9101 9.67591 11.7306 10.005 11.924 10.6048C12.2237 11.5349 12.4411 12.4979 12.6061 13.4621C12.6658 13.8115 12.588 14.4062 12.3709 14.5275C12.0742 14.6934 11.5209 14.6346 11.1897 14.4597C10.269 13.9731 9.42704 13.3378 8.50819 12.8472C8.2269 12.6968 7.73017 12.6976 7.44793 12.8474C6.49958 13.3505 5.61842 13.9788 4.68244 14.5075C3.98017 14.9041 3.34547 14.5535 3.32986 13.7106Z" fill="#0D2E4E"/>
</svg>
