<svg width="16" height="16" viewBox="0 0 16 16" fill="none" xmlns="http://www.w3.org/2000/svg">
<mask id="mask0_9561_391278" style="mask-type:alpha" maskUnits="userSpaceOnUse" x="0" y="0" width="16" height="16">
<rect width="16" height="16" fill="#D9D9D9"/>
</mask>
<g mask="url(#mask0_9561_391278)">
<path d="M5.87495 11.979L7.99995 10.354L10.125 11.979L9.33295 9.396L11.708 7.5H8.85395L7.99995 4.875L7.16695 7.5H4.29195L6.68795 9.396L5.87495 11.979ZM7.99995 11.729L5.18795 13.854C5.07662 13.9373 4.96528 13.9757 4.85395 13.969C4.74328 13.9617 4.64595 13.9303 4.56195 13.875C4.46528 13.8197 4.39595 13.7363 4.35395 13.625C4.31262 13.5137 4.30562 13.3957 4.33295 13.271L5.41695 9.771L2.45795 7.375C2.36062 7.29167 2.29828 7.198 2.27095 7.094C2.24295 6.99 2.24995 6.88233 2.29195 6.771C2.33328 6.65967 2.39562 6.57267 2.47895 6.51C2.56228 6.448 2.67328 6.417 2.81195 6.417H6.37495L7.47895 3C7.52095 2.87467 7.59062 2.781 7.68795 2.719C7.78462 2.65633 7.88862 2.625 7.99995 2.625C8.11128 2.625 8.21528 2.65633 8.31195 2.719C8.40928 2.781 8.47895 2.87467 8.52095 3L9.62495 6.417H13.188C13.3266 6.417 13.4376 6.448 13.521 6.51C13.6043 6.57267 13.6666 6.65967 13.708 6.771C13.75 6.88233 13.757 6.99 13.729 7.094C13.7016 7.198 13.6393 7.29167 13.542 7.375L10.583 9.771L11.667 13.271C11.6943 13.3957 11.6873 13.5137 11.646 13.625C11.604 13.7363 11.5346 13.8197 11.438 13.875C11.354 13.9303 11.2566 13.9617 11.146 13.969C11.0346 13.9757 10.9233 13.9373 10.812 13.854L7.99995 11.729Z" fill="#1C1B1F"/>
</g>
</svg>
