<svg width="16" height="16" viewBox="0 0 16 16" fill="none" xmlns="http://www.w3.org/2000/svg">
<mask id="mask0_9561_391284" style="mask-type:alpha" maskUnits="userSpaceOnUse" x="0" y="0" width="16" height="16">
<rect width="16" height="16" fill="#D9D9D9"/>
</mask>
<g mask="url(#mask0_9561_391284)">
<path d="M5.97899 12.667C5.53433 12.667 5.15599 12.514 4.84399 12.208C4.53133 11.9027 4.37499 11.5277 4.37499 11.083V1.938C4.37499 1.49333 4.53133 1.11467 4.84399 0.802C5.15599 0.489334 5.53433 0.333 5.97899 0.333H12.604C13.0487 0.333 13.4273 0.489334 13.74 0.802C14.052 1.11467 14.208 1.49333 14.208 1.938V11.083C14.208 11.5277 14.052 11.9027 13.74 12.208C13.4273 12.514 13.0487 12.667 12.604 12.667H5.97899ZM5.97899 11.333H12.604C12.6873 11.333 12.7533 11.3087 12.802 11.26C12.8507 11.212 12.875 11.153 12.875 11.083V1.938C12.875 1.854 12.8507 1.788 12.802 1.74C12.7533 1.69133 12.6873 1.667 12.604 1.667H5.97899C5.89566 1.667 5.82966 1.69133 5.78099 1.74C5.73233 1.788 5.70799 1.854 5.70799 1.938V11.083C5.70799 11.153 5.73233 11.212 5.78099 11.26C5.82966 11.3087 5.89566 11.333 5.97899 11.333ZM2.87499 15.75C2.43033 15.75 2.05533 15.5973 1.74999 15.292C1.44466 14.986 1.29199 14.611 1.29199 14.167V4.396C1.29199 4.22933 1.35799 4.07667 1.48999 3.938C1.62199 3.79867 1.77799 3.729 1.95799 3.729C2.12466 3.729 2.27766 3.79867 2.41699 3.938C2.55566 4.07667 2.62499 4.22933 2.62499 4.396V14.167C2.62499 14.2363 2.64933 14.2953 2.69799 14.344C2.74666 14.3927 2.80566 14.417 2.87499 14.417H10.146C10.3127 14.417 10.4653 14.4863 10.604 14.625C10.7427 14.7637 10.812 14.9163 10.812 15.083C10.812 15.2637 10.7427 15.42 10.604 15.552C10.4653 15.684 10.3127 15.75 10.146 15.75H2.87499Z" fill="#1C1B1F"/>
</g>
</svg>
