<svg width="16" height="16" viewBox="0 0 16 16" fill="none" xmlns="http://www.w3.org/2000/svg">
<mask id="mask0_9561_391281" style="mask-type:alpha" maskUnits="userSpaceOnUse" x="0" y="0" width="16" height="16">
<rect width="16" height="16" fill="#D9D9D9"/>
</mask>
<g mask="url(#mask0_9561_391281)">
<path d="M8 13.625C7.81933 13.625 7.663 13.559 7.531 13.427C7.399 13.295 7.333 13.1387 7.333 12.958V8.667H3.042C2.86133 8.667 2.705 8.601 2.573 8.469C2.441 8.337 2.375 8.18067 2.375 8C2.375 7.81933 2.441 7.663 2.573 7.531C2.705 7.399 2.86133 7.333 3.042 7.333H7.333V3.042C7.333 2.86133 7.399 2.705 7.531 2.573C7.663 2.441 7.81933 2.375 8 2.375C8.18067 2.375 8.337 2.441 8.469 2.573C8.601 2.705 8.667 2.86133 8.667 3.042V7.333H12.958C13.1387 7.333 13.295 7.399 13.427 7.531C13.559 7.663 13.625 7.81933 13.625 8C13.625 8.18067 13.559 8.337 13.427 8.469C13.295 8.601 13.1387 8.667 12.958 8.667H8.667V12.958C8.667 13.1387 8.601 13.295 8.469 13.427C8.337 13.559 8.18067 13.625 8 13.625Z" fill="#1C1B1F"/>
</g>
</svg>
